<?xml version="1.0" ?><!DOCTYPE svg  PUBLIC '-//W3C//DTD SVG 1.1//EN'  'http://www.w3.org/Graphics/SVG/1.1/DTD/svg11.dtd'><svg enable-background="new 0 0 96 96" height="96px" id="Layer_1" version="1.1" viewBox="0 0 96 96" width="96px" xml:space="preserve" xmlns="http://www.w3.org/2000/svg" xmlns:xlink="http://www.w3.org/1999/xlink"><path d="M85.594,40.804L85.6,40.8L76,28c-1.71-2.28-4.719-4-7-4h-3c-1.104,0-2,0.896-2,2s0.896,2,2,2h3  c0.925,0,2.786,1.048,3.799,2.399L80,40H16l7.201-9.601C24.214,29.048,26.075,28,27,28h3c1.104,0,2-0.896,2-2s-0.896-2-2-2h-3  c-2.281,0-5.29,1.719-7,3.999L10.4,40.8l0.006,0.004C10.154,41.138,10,41.55,10,42v6c0,6.917,3.762,20,18,20s18-13.083,18-20  c0-1.103,0.897-2,2-2s2,0.897,2,2c0,6.917,3.762,20,18,20s18-13.083,18-20v-6C86,41.55,85.846,41.138,85.594,40.804z M14,48v-2  c0-1.105,0.895-2,2-2h24c1.105,0,2,0.895,2,1.998v1.998C41.998,48.65,41.781,64,28,64S14.002,48.65,14,48z M54,48v-2  c0-1.105,0.895-2,2-2h24c1.105,0,2,0.895,2,1.998v1.998C81.998,48.65,81.781,64,68,64S54.002,48.65,54,48z"/></svg>